<?xml version="1.0" encoding="utf-8"?><svg xmlns="http://www.w3.org/2000/svg" xmlns:xlink="http://www.w3.org/1999/xlink"><symbol viewBox="0 0 965.982 127.041" id="Group_3" xmlns="http://www.w3.org/2000/svg"><defs><linearGradient id="aa" x1=".5" x2=".5" y2="1" gradientUnits="objectBoundingBox"><stop offset="0" stop-color="#9ed4fb"/><stop offset="1" stop-color="#c7ebff"/></linearGradient><linearGradient id="ab" x1=".5" x2=".5" y2="1" gradientUnits="objectBoundingBox"><stop offset="0" stop-color="#c7ebff"/><stop offset="1" stop-color="#9ed4fb"/></linearGradient><linearGradient id="ac" x1=".027" y1=".923" x2=".782" y2=".369" gradientUnits="objectBoundingBox"><stop offset="0" stop-color="#77bfff"/><stop offset=".479" stop-color="#7dc3fe"/><stop offset="1" stop-color="#c5e6ff"/></linearGradient></defs><g data-name="Group 3"><path data-name="Path 208" d="M1424.744 7545.973s-122.823-2.36-162.977-85.03-165.339 54.324-231.475 85.03 394.452 0 394.452 0z" transform="translate(-458.762 -7432.579)" fill="url(#aa)"/><path data-name="Path 207" d="M1747.274 7550.4c79.932-35.443-26.644-29.833 75.724-59.282s172.484 25.241 172.484 25.241 5.655-8.886 32.552 2.886c8.2 3.588 18.773 9.361 31.954 18.148 54.69 36.464-312.714 13.007-312.714 13.007z" transform="translate(-1243.054 -7432.788)" fill="url(#ab)"/><path data-name="Path 205" d="M1023.8 7546.345s123.235-2.369 163.523-85.315 165.893 54.507 232.25 85.315-395.773 0-395.773 0z" transform="translate(-800.054 -7434.788)" fill="url(#aa)"/><path data-name="Path 206" d="M1466.111 7512.506s77.127-26.645 61.7-46.276 72.92-33.655 72.92-33.655-9.782-12 60.333-17.609 32.219 44.254 99.53 87.725 25.241 35.058 25.241 35.058l-354.783-8.415z" transform="translate(-1431.054 -7411.788)" fill="url(#ac)"/></g></symbol><symbol viewBox="0 0 1926.266 395.935" id="Path_205" xmlns="http://www.w3.org/2000/svg"><path data-name="Path 205" d="M.5 1.229s196.849 201.733 595.076 254.735 645.611 0 645.611 0 275.486-69.472 476.777-70.652c64.083-.375 201.157 4.178 207.8 24.769v73.532h0s3.271-78.883-627.256 67.755S.5 232.119.5 232.119z" fill="rgba(252,252,252,0)" stroke="#707070"/></symbol><symbol id="arrow-to-top" viewBox="0 0 32 32" xmlns="http://www.w3.org/2000/svg"><defs><style>.ccls-1{fill:none;stroke:#000;stroke-linecap:round;stroke-linejoin:round;stroke-width:2px}</style></defs><g id="carrow-top"><path class="ccls-1" d="M15.87 3l.26 26M15.87 3l5.04 3.95M15.87 3l-4.96 4.05"/></g></symbol><symbol viewBox="0 0 58 59" id="baubles" xmlns="http://www.w3.org/2000/svg"><g fill="none" fill-rule="evenodd"><circle cx="40" cy="33" fill="#ED634C" fill-rule="nonzero" r="18"/><path d="M58 33c0 .19 0 .39-.01.58 0 .22-.01.43-.03.64-.02.33-.05.66-.1.98a17.106 17.106 0 0 1-.89 3.8H35.89l-.56-2.59-.17-.81a4.74 4.74 0 0 0-.17-.49A17.778 17.778 0 0 0 30.44 28h26.85c.471 1.625.71 3.308.71 5z" fill="#F6DB6D"/><path d="M57.99 33.58c0 .22-.01.43-.03.64-.02.33-.05.66-.1.98l-3.87-5.81-6.58 9.4a.429.429 0 0 1-.29.18.544.544 0 0 1-.53-.18l-6.58-9.4-4.68 7.02-.17-.81a4.74 4.74 0 0 0-.17-.49l4.59-6.89a.532.532 0 0 1 .41-.22H40a.48.48 0 0 1 .41.21L47 37.63l6.59-9.42A.57.57 0 0 1 54 28h.01a.532.532 0 0 1 .41.22l3.57 5.36z" fill="#FAEDBD" fill-rule="nonzero"/><path d="M40.5 4.55V1a.5.5 0 1 0-1 0v3.55a3.495 3.495 0 0 0-3 3.45v4a.5.5 0 1 0 1 0V8a2.5 2.5 0 1 1 5 0v4a.5.5 0 1 0 1 0V8a3.495 3.495 0 0 0-3-3.45zM18.5 12.55V1a.5.5 0 1 0-1 0v11.55a3.495 3.495 0 0 0-3 3.45v4a.5.5 0 1 0 1 0v-4a2.5 2.5 0 0 1 5 0v4a.5.5 0 1 0 1 0v-4a3.495 3.495 0 0 0-3-3.45z" fill="#717275" fill-rule="nonzero"/><circle cx="18" cy="41" fill="#23B972" fill-rule="nonzero" r="18"/><rect fill="#B4B4B3" fill-rule="nonzero" height="5" rx="1" width="8" x="14" y="19"/><path d="M36 41c0 .13 0 .26-.01.39 0 .28-.01.56-.03.83-.02.26-.04.52-.07.78a17.128 17.128 0 0 1-.92 4H1.03a17.807 17.807 0 0 1-.93-4.08l-.06-.7c-.02-.3-.03-.6-.03-.9C0 41.22 0 41.11 0 41c0-1.692.239-3.375.71-5h34.58c.471 1.625.71 3.308.71 5z" fill="#C9CED1"/><path d="M35.99 41.39c0 .28-.01.56-.03.83-.02.26-.04.52-.07.78L32 37.38l-6.59 9.41a.537.537 0 0 1-.82 0L18 37.37l-6.59 9.42a.537.537 0 0 1-.82 0L4 37.37.1 42.92l-.06-.7c-.02-.3-.03-.6-.03-.9l3.58-5.11a.505.505 0 0 1 .82 0L11 45.63l6.59-9.42a.537.537 0 0 1 .82 0L25 45.63l6.59-9.42A.507.507 0 0 1 32 36c.166-.003.32.08.41.22l3.58 5.17z" fill="#F0F3F4" fill-rule="nonzero"/><rect fill="#B4B4B3" fill-rule="nonzero" height="5" rx="1" width="8" x="36" y="11"/></g></symbol><symbol viewBox="0 0 221.927 338.277" preserveAspectRatio="none" id="card-mask" xmlns="http://www.w3.org/2000/svg"><path data-name="Path 205" d="M120.248 0h101.679v338.277H0s36.153-66.118 96.862-124.023c32.558-31.056 84.681-59.6 90.528-113.159S120.248 0 120.248 0z"/></symbol><symbol id="github" viewBox="0 0 512 512" xml:space="preserve" xmlns="http://www.w3.org/2000/svg"><style>.fst0{fill-rule:evenodd;clip-rule:evenodd}</style><path class="fst0" d="M256 32C132.3 32 32 134.8 32 261.7c0 101.5 64.2 187.5 153.2 217.9 11.2 2.1 15.3-5 15.3-11.1 0-5.5-.2-19.9-.3-39.1-62.3 13.9-75.5-30.8-75.5-30.8-10.2-26.5-24.9-33.6-24.9-33.6-20.3-14.3 1.5-14 1.5-14 22.5 1.6 34.3 23.7 34.3 23.7 20 35.1 52.4 25 65.2 19.1 2-14.8 7.8-25 14.2-30.7-49.7-5.8-102-25.5-102-113.5 0-25.1 8.7-45.6 23-61.6-2.3-5.8-10-29.2 2.2-60.8 0 0 18.8-6.2 61.6 23.5 17.9-5.1 37-7.6 56.1-7.7 19 .1 38.2 2.6 56.1 7.7 42.8-29.7 61.5-23.5 61.5-23.5 12.2 31.6 4.5 55 2.2 60.8 14.3 16.1 23 36.6 23 61.6 0 88.2-52.4 107.6-102.3 113.3 8 7.1 15.2 21.1 15.2 42.5 0 30.7-.3 55.5-.3 63 0 6.1 4 13.3 15.4 11C415.9 449.1 480 363.1 480 261.7 480 134.8 379.7 32 256 32z"/></symbol><symbol viewBox="0 0 24 24" id="gmail" xmlns="http://www.w3.org/2000/svg"><path d="M24 4.5v15c0 .85-.65 1.5-1.5 1.5H21V7.387l-9 6.463-9-6.463V21H1.5C.649 21 0 20.35 0 19.5v-15c0-.425.162-.8.431-1.068A1.485 1.485 0 0 1 1.5 3H2l10 7.25L22 3h.5c.425 0 .8.162 1.069.432.27.268.431.643.431 1.068z"/></symbol><symbol viewBox="0 0 48 48" id="hh" xmlns="http://www.w3.org/2000/svg"><path d="M24 48c13.255 0 24-10.745 24-24S37.255 0 24 0 0 10.745 0 24s10.745 24 24 24"/><path d="M13.65 13.169v8.164c1.243-1.482 2.733-2.228 4.461-2.228.89 0 1.687.17 2.402.507.717.335 1.253.765 1.615 1.287.364.527.61 1.104.743 1.74.132.633.198 1.618.198 2.954v8.729h-3.862V26.46c0-1.56-.07-2.548-.217-2.968a1.917 1.917 0 0 0-.775-1c-.372-.251-.835-.375-1.394-.375-.64 0-1.214.16-1.713.478-.51.32-.876.798-1.108 1.437-.236.64-.354 1.585-.35 2.836l-.004 7.454H9.789V13.169h3.862m15.206 0v8.164c1.244-1.482 2.733-2.228 4.46-2.228.887 0 1.69.17 2.406.507.714.335 1.25.765 1.61 1.287a4.69 4.69 0 0 1 .743 1.74c.133.633.199 1.618.199 2.954v8.729h-3.858V26.46c0-1.56-.073-2.548-.22-2.968a1.91 1.91 0 0 0-.777-1c-.368-.251-.835-.375-1.394-.375-.639 0-1.213.16-1.713.478-.503.32-.871.798-1.106 1.437-.232.64-.35 1.585-.35 2.836v7.454H25V13.169h3.857" fill="#212122"/></symbol><symbol viewBox="0 0 1792 1792" id="link" xmlns="http://www.w3.org/2000/svg"><path d="M1408 928v320q0 119-84.5 203.5T1120 1536H288q-119 0-203.5-84.5T0 1248V416q0-119 84.5-203.5T288 128h704q14 0 23 9t9 23v64q0 14-9 23t-23 9H288q-66 0-113 47t-47 113v832q0 66 47 113t113 47h832q66 0 113-47t47-113V928q0-14 9-23t23-9h64q14 0 23 9t9 23zm384-864v512q0 26-19 45t-45 19-45-19l-176-176-652 652q-10 10-23 10t-23-10L695 983q-10-10-10-23t10-23l652-652-176-176q-19-19-19-45t19-45 45-19h512q26 0 45 19t19 45z"/></symbol><symbol viewBox="0 0 24 24" id="linkedin" xmlns="http://www.w3.org/2000/svg"><path d="M8 19H5V9h3v10zm11 0h-3v-5.342c0-1.392-.496-2.085-1.479-2.085-.779 0-1.273.388-1.521 1.165V19h-3s.04-9 0-10h2.368l.183 2h.062c.615-1 1.598-1.678 2.946-1.678 1.025 0 1.854.285 2.487 1.001.637.717.954 1.679.954 3.03V19z"/><ellipse cx="6.5" cy="6.5" rx="1.55" ry="1.5"/></symbol><symbol viewBox="0 0 60.4 310" preserveAspectRatio="none" id="mask" xmlns="http://www.w3.org/2000/svg"><path d="M60.4 310V0h-18c13.7 25.5 21 63.4 12.3 91l-.7 2.3c-5.4 16.8-5.8 13-14.7 30.6l-.3.6c-11.2 22.1-19.5 47.1-21 71.9C16 230.6 26.5 280.1.1 310h60.3z"/></symbol><symbol viewBox="0 0 60.4 310" preserveAspectRatio="none" id="maska" xmlns="http://www.w3.org/2000/svg"><path d="M60.4 310V0h-18c13.7 25.5 21 63.4 12.3 91l-.7 2.3c-5.4 16.8-5.8 13-14.7 30.6l-.3.6c-11.2 22.1-19.5 47.1-21 71.9C16 230.6 26.5 280.1.1 310h60.3z"/></symbol><symbol viewBox="0 0 247 390" fill-rule="evenodd" clip-rule="evenodd" stroke-linecap="round" stroke-linejoin="round" stroke-miterlimit="1.5" id="mouse-scroll" xmlns="http://www.w3.org/2000/svg"><path d="M123.359 79.775v72.843M236.717 123.359C236.717 60.794 185.923 10 123.359 10 60.794 10 10 60.794 10 123.359v143.237c0 62.565 50.794 113.359 113.359 113.359 62.564 0 113.358-50.794 113.358-113.359V123.359z" fill="none" stroke="#fff" stroke-width="20"/></symbol><symbol stroke="#fff" stroke-linecap="round" stroke-linejoin="round" stroke-width="2" viewBox="0 0 24 24" id="play" xmlns="http://www.w3.org/2000/svg"><path d="M5 3l14 9-14 9V3z"/></symbol><symbol viewBox="0 0 64 64" id="reindeer" xmlns="http://www.w3.org/2000/svg"><path d="M24.9 43l.04-2H12.857L20 61h4l-4-14a5 5 0 0 0 4.9-4z" fill="#854219"/><path d="M44.277 12h-8.234a3.419 3.419 0 0 0-3.4 3.022L30.9 30H16a6 6 0 0 0-6 6v7l-4 3v15h4V49l1.257-.419A16 16 0 0 0 19 43h15l7 18h4l-1-3-4-15V18l5.318-3.127" fill="#a65c2e"/><path d="M31.586 6h-.172l-.707-.708A2.394 2.394 0 0 1 30 3.586V2h-2v1.586A4.379 4.379 0 0 0 28.721 6h-3.307l-.707-.708A2.394 2.394 0 0 1 24 3.586V2h-2v1.586A4.379 4.379 0 0 0 22.721 6h-2.307A2.416 2.416 0 0 1 18 3.586V2h-2v1.586A4.413 4.413 0 0 0 20.414 8h11.172A2.416 2.416 0 0 1 34 10.414V12h2v-1.586A4.413 4.413 0 0 0 31.586 6zM57 2v1.586A2.416 2.416 0 0 1 54.586 6h-2.307A4.384 4.384 0 0 0 53 3.586V2h-2v1.586a2.4 2.4 0 0 1-.707 1.707L49.586 6h-3.307A4.384 4.384 0 0 0 47 3.586V2h-2v1.586a2.4 2.4 0 0 1-.707 1.707L43.586 6h-.172A4.413 4.413 0 0 0 39 10.414V12h2v-1.586A2.416 2.416 0 0 1 43.414 8h11.172A4.413 4.413 0 0 0 59 3.586V2z" fill="#fdb62f"/><path fill="#854219" d="M51 42l-11-5v6l6 2-4.014 5.447 1.327 4.977L51 46v-4z"/><path fill="#663318" d="M36 14h2v2h-2z"/><circle cx="46" cy="13" r="2" fill="#dd4a43"/><path d="M16 30H7a4.994 4.994 0 0 0 3.161 4.64A6 6 0 0 1 16 30zM36.043 12H29a3.985 3.985 0 0 0 3.538 3.953l.109-.931A3.419 3.419 0 0 1 36.043 12z" fill="#854219"/><path d="M15 38h-2v-2a3 3 0 0 1 3-3v2a1 1 0 0 0-1 1z" fill="#c47747"/><path fill="#964c1e" d="M18 39h2v4h-2zM33 39h2v4h-2z"/></symbol><symbol viewBox="0 0 157.877 49.39" id="santa1" xmlns="http://www.w3.org/2000/svg"><g data-name="Group 4"><g fill="#5eb2fc" fill-rule="evenodd"><path d="M23.929 29.935c-.221-.105-.607-.156-.758-.35-.209-.268.056-.614.083-.882a1.448 1.448 0 0 0-.463-1.083c-.417-.47-.927-.84-1.058-1.463a1.544 1.544 0 0 1 .1-.967c.093-.2.295-.39.307-.624.022-.4-.435-.629-.748-.826-.6-.38-1.206-.76-1.819-1.126a6.228 6.228 0 0 0 .789-2.559 4.877 4.877 0 0 0-.378-2.544 2.12 2.12 0 0 0 1.116-2.013c-.008-.1-.093-.217-.208-.2a2.8 2.8 0 0 0-1.785.954.3.3 0 0 0-.123-.123 6.49 6.49 0 0 0-2.393-.835c-.943-.126-1.852.034-2.79-.024a6.48 6.48 0 0 1-2.738-.864 21.52 21.52 0 0 1-2.013-1.442 8.011 8.011 0 0 1 .567-3.937c.214-.427.577-.878.449-1.39a1 1 0 0 0-.477-.6.358.358 0 0 0 .037-.05l.046-.079a4.74 4.74 0 0 1 .659-.943l.018-.02c.757-.072 1.519-.223 2.258-.369.285-.056.569-.113.852-.165l.392-.071c.918-.167 1.868-.341 2.8-.519a.491.491 0 0 0 .3-.178.353.353 0 0 0 .176-.145c.6-.938 1.294-1.822 1.965-2.678.364-.464.741-.944 1.1-1.429a.23.23 0 0 0-.026-.31.261.261 0 0 0-.341-.015 17.062 17.062 0 0 0-3.244 3.941l-.059.008c-.956.183-1.926.376-2.864.564l-.457.091c-.272.054-.549.105-.825.157l-.248.046q-.128-.303-.261-.596c-.194-.426-.395-.866-.581-1.3a2.364 2.364 0 0 1 .066-1.536 6.926 6.926 0 0 0 .152-.692.31.31 0 0 0-.228-.35.3.3 0 0 0-.362.2 7.829 7.829 0 0 1-.08.216 3.9 3.9 0 0 0-.376 2.024 8.749 8.749 0 0 0 .668 1.683c.082.17.16.334.233.5-.5.1-.9.2-1.267.313l-.019.006a.348.348 0 0 0-.045 0q-.337-.253-.678-.5c-.531-.391-1.079-.8-1.6-1.216a2.713 2.713 0 0 1-1.172-2.098.319.319 0 0 0-.622-.077 2.476 2.476 0 0 0 .857 2.341A17.128 17.128 0 0 0 8.8 5.402c.189.138.383.28.574.422a16.484 16.484 0 0 0-1.031-.35c-.3-.1-.616-.194-.917-.307a5.479 5.479 0 0 1-1.792-1.218.265.265 0 0 0-.317-.031.262.262 0 0 0-.117.29c.325 1.259 1.831 1.719 3.041 2.086.328.1.641.2.908.3-.019.06-.036.117-.05.174a.279.279 0 0 0-.007.066 7.147 7.147 0 0 0-3.038.415c-.981.209-2.435.011-3 1.064a.157.157 0 0 0-.018.062.822.822 0 0 0 .191 1.045c.653.592 1.981.551 2.516 1.209a15.161 15.161 0 0 0-1.176 1.942 9.586 9.586 0 0 0-.608 2.333 6.678 6.678 0 0 0-.05 3.159c-.626-.112-1.259-.2-1.886-.295l-1.3-.2c-.182-.028-.429-.1-.592.018-.356.263.13.777.278 1 .457.705.916 1.41 1.383 2.109a1.032 1.032 0 0 0-1.292.832 2.4 2.4 0 0 0 .34 1.194q.369.861.764 1.709.767 1.651 1.639 3.25c.384.7.915 1.49 1.831 1.274a.128.128 0 0 0 .1-.11.151.151 0 0 0 .039-.055 1.246 1.246 0 0 0-.19-1.235 1.794 1.794 0 0 0-1.057-.527 39.944 39.944 0 0 1-.929-2.144q-.262-.665-.5-1.338c-.18-.5-.855-1.95.318-1.793a.08.08 0 0 0 .029 0 .052.052 0 0 0 .023.038 3.827 3.827 0 0 1 1.4 1.368 2.843 2.843 0 0 0 .761 1.126c.241.168.532.243.778.4.226.147.417.343.638.5a1.222 1.222 0 0 0 1.2.208.279.279 0 0 0 .061-.264 4.532 4.532 0 0 0-.618-1.355c-.3-.355-.686-.322-1.092-.333a14.511 14.511 0 0 1-1.739-1.816c3.534-.825 7 .683 10.482 1.2a3.15 3.15 0 0 0 .662 1.186c-.077.294-.142.592-.2.885a14.236 14.236 0 0 0-1.637.867 1.849 1.849 0 0 0-.858 1.257 36.383 36.383 0 0 0-.769 4.534c0 .038.074.41.207.3.481-.408 1.251-.945 1.462-1.568a.59.59 0 0 0-.006-.442.99.99 0 0 0-.148-.2 3.288 3.288 0 0 1-.254-.373c.265-.291.708-.505.684-.874-.009-.139-.1-.217-.173-.331a1.085 1.085 0 0 1-.178-.686 4.22 4.22 0 0 1 1.522-.71c.663-.248 1.329-.489 1.988-.748.328-.129.881-.264 1.079-.584a.912.912 0 0 0 .092-.546l.147.064a7.246 7.246 0 0 0 2.288.526 32.094 32.094 0 0 0 1.4 4.4c.423 1.134.92 2.156 2.279 2.222a.119.119 0 0 0 .114-.058.257.257 0 0 0 .036-.037 1.3 1.3 0 0 0-.568-1.968"/><path d="M5.864 17.852a285.43 285.43 0 0 0 52.331 3.193c9.2-.284 18.025-1.15 27.006-1.84a182.772 182.772 0 0 1 23.592-.59c7.626.4 15 1.554 20.029 3.733.237.1-.254.251-.5.148-11.011-4.693-29.677-4.1-44.425-2.917-8.519.681-16.937 1.461-25.674 1.728-8.451.258-17 .142-25.407-.332A256.092 256.092 0 0 1 5.6 18.032c-.335-.056-.069-.232.265-.18"/><path d="M4.6 15.855a241.286 241.286 0 0 0 48.133 4.552c8.945.022 17.823-.311 26.544-.864 7.928-.5 15.888-1.214 24.076-.5a93.939 93.939 0 0 1 21.289 4.473c.281.093-.115.233-.4.143a95.7 95.7 0 0 0-20.515-4.332c-8.667-.812-17.1.02-25.5.532a339.687 339.687 0 0 1-49.213-.2 181.845 181.845 0 0 1-24.66-3.646c-.284-.066-.047-.219.247-.157"/><path d="M137.045 45.933l-.516-.084c-.034-1.13-.157-2.373-.3-3.5.181.018.361.034.539.046a20.261 20.261 0 0 1 .278 3.539zm-1.381 1.572c-1.543-.324-3.1-.6-4.706-.8a112.565 112.565 0 0 1-12.5-2 41.552 41.552 0 0 1-9.562-3.658c-.236-.126-.48-.265-.726-.41a5.429 5.429 0 0 0 2.011-.129l.051-.015a14.452 14.452 0 0 0 3.244 1.69 49.336 49.336 0 0 0 13.676 3.266c2.643.247 5.294.381 7.934.67.206.022.411.05.616.079a11.667 11.667 0 0 1-.037 1.3zm-21.014-10l1.643.384c-1.357 1.054-3.16 2.127-4.822 2.06a16.35 16.35 0 0 0 3.179-2.444zm18.906 4.422l.007-.034a18.341 18.341 0 0 0 1.827.357c.1 1.124.243 2.345.294 3.476a47.699 47.699 0 0 0-2.933-.334 101.891 101.891 0 0 1-11.4-1.343 37.658 37.658 0 0 1-8.8-2.955 18.01 18.01 0 0 1-.674-.344 4.917 4.917 0 0 0 1.818-.193 11 11 0 0 0 3.512-2.454zm17.385-18.524a16.357 16.357 0 0 0-2.091-.666 4.386 4.386 0 0 0 .187-1.934c-.119-.662-.622-1-.855-1.592-.492-1.253.624-2.8-.85-3.741a8.751 8.751 0 0 0-1.535-.2c-.034-.739.653-.539.812-1.3a.3.3 0 0 0-.375-.349c-1.12.193-1.813.333-2.717-.426-.3-.249-.78-.25-.557.1.691 1.075 1.313 1.117 1.778 2.217a3.257 3.257 0 0 0-.423.252 2.82 2.82 0 0 0-.75.829 3.786 3.786 0 0 0-2.84.72 3.893 3.893 0 0 0-1.4 2.307 3.219 3.219 0 0 0-1.341.62 4.33 4.33 0 0 0-.911 1 3.21 3.21 0 0 0-.26.013v-.017a2.458 2.458 0 0 0-.355-1.8 4.852 4.852 0 0 0 .881-.564s0-.007.007-.01a6.215 6.215 0 0 0-.4-1.185 3.6 3.6 0 0 0 3.749-2.067 1.113 1.113 0 0 0 .579.125 1.13 1.13 0 1 0-1.2-1.056 1.121 1.121 0 0 0 .081.338c-1.491.1-1.736-1.866-2.409-2.751a4.133 4.133 0 0 0-1.253-1.076 5.674 5.674 0 0 0-3.681-.614c-2.091.336-2.952 1.8-2.583 3.479a1.623 1.623 0 0 0-.517.474 10.847 10.847 0 0 0-.977 1.875c-.907.3-1.816.9-2.625 1.095a.279.279 0 0 0-.2.386 2.808 2.808 0 0 0-.293 0c-.465.025-1.73.661-2.145.223.033-.079.07-.156.1-.236.045-.119-.2-.554-.343-.494-.468.2-1.656-1.153-2.388-1.157a2.5 2.5 0 0 0-1.782.937 2.393 2.393 0 0 0 .317 3.531 5.282 5.282 0 0 0 .833.575q.382.207.774.4a1.882 1.882 0 0 1 .962.873 4.873 4.873 0 0 0 .653.311c.546.285.936.8 1.6.949h.007a4.111 4.111 0 0 1-1.452 2.725 1.61 1.61 0 0 0-.3.517 2.229 2.229 0 0 0-.1.862 4.112 4.112 0 0 0-.4.258c-.155.111-.3.231-.449.354a3.888 3.888 0 0 0-4.089 1.931 4.455 4.455 0 0 0-.073 4.825c-1.727-.031-4.551-.549-5.574 1.122-.191.311.109.572.391.538l1.557.364a13.811 13.811 0 0 1-3.761 2.135 4.154 4.154 0 0 1-.879-1.148 4.962 4.962 0 0 1-.2-2.618 1.256 1.256 0 1 0 1.218-1.563c-1.385-.29-2.053 1.384-2.019 2.845a4.038 4.038 0 0 0 1.165 2.685 4.056 4.056 0 0 1-2.881-.285 4.885 4.885 0 0 1-1.166-1.55 5.461 5.461 0 0 1-.1-2.893 1.384 1.384 0 1 0 1.7-1.624 1.355 1.355 0 0 0-.289-.043c-1.513-.382-2.325 1.432-2.354 3.043a4.555 4.555 0 0 0 1.352 3.229.621.621 0 0 0 .14.153 13.843 13.843 0 0 0 4.211 2.651 54.444 54.444 0 0 0 14.92 4.223c2.9.393 5.816.661 8.71 1.1 2.557.388 4.955 1.252 7.478 1.758a.29.29 0 0 0 .147-.561c-1.562-.413-3.1-.8-4.64-1.141v-.012a12.317 12.317 0 0 0 .055-1.333c1.808.32 3.567.812 5.388 1.1a.263.263 0 0 0 .112-.514 106.889 106.889 0 0 0-4.247-.86.042.042 0 0 0 0-.011 19.394 19.394 0 0 0-.244-3.619c.356.009.706.008 1.044-.006 2.294-.092 3.965-1.473 5.457-3.151 3.585-4.035 4.968-9.22 5.174-14.532a4.236 4.236 0 0 1 1.657-.747.329.329 0 0 0 .06-.6zM102.266 28.571a1.457 1.457 0 0 0-1.58-1.1 10.731 10.731 0 0 1-1.779-1.23c-.45-.309-.909-.6-1.364-.894a10.616 10.616 0 0 1-.643-1.19c-.141-.312-.265-.622-.613-.743a3.9 3.9 0 0 0-1.481.043c-.33.028-.661.052-.991.08a.151.151 0 0 0-.066-.036 2.21 2.21 0 0 1-1.534-1.31 9.251 9.251 0 0 1-.246-2.016 2.242 2.242 0 0 0-.745-1.4.667.667 0 0 0 .481-.293 1.532 1.532 0 0 0 .105-.932 4.231 4.231 0 0 0-.132-1.232c-.253-.644-.891-.189-1.282.062a2.952 2.952 0 0 0-1.18 1.237c-1.184.064-2.368.137-3.552.207-1.112.066-2.24.092-3.356.187-.554-.3-1.106-.6-1.646-.93-.445-.271-.877-.566-1.313-.852-.273-1.209-.515-2.455-.9-3.628a8.239 8.239 0 0 0 .5-1.324 1.287 1.287 0 0 0-.523-1.489 9.747 9.747 0 0 1 .72-2.333c.778 0 1.568-.069 2.338-.133a40.349 40.349 0 0 1 1.67-.115 95.929 95.929 0 0 1 4.424-.072.419.419 0 0 0 .381-.22c.046-.033.645-1.065.91-1.521l.011-.018c.514-.885 1.045-1.8 1.51-2.731a.331.331 0 0 0-.13-.44.32.32 0 0 0-.431.1c-.581.862-1.115 1.774-1.632 2.657-.25.427-.509.868-.77 1.3-.321 0-.663.01-1.039.019a9.27 9.27 0 0 1 .512-1.615l.006-.014c.054-.142.11-.285.163-.43a.338.338 0 0 0-.168-.422.331.331 0 0 0-.43.108 6.769 6.769 0 0 0-.892 2.4c-.3.01-.6.021-.885.033v-.008a2.1 2.1 0 0 1 .163-1.955.317.317 0 0 0-.508-.362 2.441 2.441 0 0 0-.467 2.364c-.3.016-.6.034-.881.052l-.211.013a.356.356 0 0 0-.064-.053 7.231 7.231 0 0 1-1.312-1.224c0-.021-.059-.167-.065-.189a8.562 8.562 0 0 1-.157-1.033c-.016-.123-.023-.25-.031-.393a3.233 3.233 0 0 0-.12-.832.289.289 0 0 0-.277-.2.281.281 0 0 0-.267.2 5.069 5.069 0 0 0 .1 2.315l.046.236a.946.946 0 0 0 .217.409 4.272 4.272 0 0 0 .794.83 18.791 18.791 0 0 0-2.711.31.334.334 0 0 0-.054-.015 16.051 16.051 0 0 1-1.925-.56l-.168-.45-.011-.029c-.329-.882-.668-1.794-1.073-2.654a.313.313 0 0 0-.4-.158.318.318 0 0 0-.2.383c.254.91.59 1.814.915 2.689l.183.494a.409.409 0 0 0 .256.25 6.591 6.591 0 0 0 1.836.7 7.909 7.909 0 0 0-.359 1.064l-.293-.014c-.923-.043-1.879-.087-2.815-.2h-.032a7.093 7.093 0 0 0-.43-.493l-.007-.009-.175-.19-.844-.943a.358.358 0 0 0-.348-.116.4.4 0 0 0-.289.266.361.361 0 0 0 .085.358l.867.922c.061.065.121.132.183.2a5.029 5.029 0 0 0 .658.642l.007.005a.386.386 0 0 0 .262.138 22.1 22.1 0 0 0 3.033.141l-.033.229a1.839 1.839 0 0 0-1.261.134c-1.38.718-2.822.494-4.227 1.189-.718.355-1.46 1.149-.785 1.834.37.377.955.359 1.436.452a2.465 2.465 0 0 1 1.94 1.425 4.046 4.046 0 0 0-.85 1.3 5.517 5.517 0 0 0-.126 2.289c.063.926.165 1.849.29 2.769a7.776 7.776 0 0 0 .476 2.1c-.648.127-1.293.274-1.938.418a3.331 3.331 0 0 0-1.572.509c-.814.792.805 1.9 1.319 2.308a11.3 11.3 0 0 0 3.3 1.865 5.422 5.422 0 0 0 3.669.246.154.154 0 0 0 .1-.157.136.136 0 0 0 .03-.139c-.157-.5-.362-.9-.918-1a2.736 2.736 0 0 0-.888.026 1.089 1.089 0 0 0-.767-.482 2.073 2.073 0 0 0-.749.082c-.131.028-.26.049-.389.069a17.487 17.487 0 0 0-1.414-1.245 13.089 13.089 0 0 1 1.617.058 4.429 4.429 0 0 0 1.541.016c.844-.219 1.215-1.079 1.837-1.621a9.118 9.118 0 0 0 4.723.962 11.184 11.184 0 0 0 4.387-1.021 4.484 4.484 0 0 0 2.695 1.63c1.4.281 2.879.062 4.2.732l.016.006c1.311 1.6 2.723 4 5.332 3.745a.138.138 0 0 0 .135-.122.142.142 0 0 0 .035-.145 1.039 1.039 0 0 0-.651-.81 2.4 2.4 0 0 0-.9-.117s-.005-.01-.01-.014a26.988 26.988 0 0 1-2.593-2.756 15.638 15.638 0 0 0 2.15 1.951 6.732 6.732 0 0 0 3.228 1.045c.167.01.1-.349.08-.429M67.264 30.676a1.621 1.621 0 0 0-.637-1.16 1.674 1.674 0 0 0-.585-.27 1.459 1.459 0 0 1-.841-.348c-.085-.077-.155-.168-.243-.242a3.974 3.974 0 0 0-1.428-.668 4.631 4.631 0 0 1-1.266-.585c0-.007-.006-.013-.011-.02-.411-.629-.654-1.24-1.449-1.357a25.644 25.644 0 0 0-2.708-.3 4.155 4.155 0 0 1-1.147-2.531 4.129 4.129 0 0 0-.744-1.984 1.7 1.7 0 0 0 .956-1.723c-.021-.194-.1-.58-.286-.7s-.413 0-.593.053a5.421 5.421 0 0 0-1.663.925 3.791 3.791 0 0 0-2.974-1.05c-1.1.061-2.164.339-3.263.38a13.508 13.508 0 0 1-2.95-.28 6.232 6.232 0 0 0-3.991-1.89c-.562-.768-1.091-1.558-1.647-2.33a7.047 7.047 0 0 0 .18-1.914 1.615 1.615 0 0 0-.612-1.127 1.4 1.4 0 0 0-.3-.144l.008-.031c.342-1.387 1.566-2.369 2.75-3.319.341-.274.664-.533.969-.8a33.713 33.713 0 0 0 4.121-4.342.2.2 0 0 0 .014-.02.354.354 0 0 0 .111-.173 12.974 12.974 0 0 0 .459-2.382.3.3 0 0 0-.25-.342.294.294 0 0 0-.319.27 14.874 14.874 0 0 1-.5 2.22c0 .009 0 .017-.006.025-.159.183-.318.366-.478.544a1.949 1.949 0 0 1-.035-.6.492.492 0 0 0-.083-.35.184.184 0 0 0-.136-.064c-.143 0-.265.159-.3.4a3.35 3.35 0 0 0 .01 1.22l-.277.3-.111-.295L45 3.653l-.153-.4v-.009a8.522 8.522 0 0 0 .008-1.283.262.262 0 1 0-.523.029 9.3 9.3 0 0 1-.053 1.248.291.291 0 0 0 0 .047.3.3 0 0 0 0 .172l.123.387.014.042c.066.2.133.414.2.623-.268.277-.536.547-.8.8a15.437 15.437 0 0 0-.285-1.709.306.306 0 0 0-.367-.232.31.31 0 0 0-.246.359 12.936 12.936 0 0 1 .252 2.187c-.3.279-.6.55-.892.806l-.119-.117a2.335 2.335 0 0 1-.833-1.243c-.023-.164-.037-.328-.051-.488a4.975 4.975 0 0 0-.169-1.045.271.271 0 0 0-.33-.184.275.275 0 0 0-.213.317 5.618 5.618 0 0 1 .059.77 4.2 4.2 0 0 0 .14 1.147 3.293 3.293 0 0 0 .945 1.261l.042.041-.2.163-.4.326c-.3.241-.606.489-.907.754q-.212-.157-.421-.317l-.23-.178c.015-.3.043-.614.067-.888.026-.29.052-.59.067-.887a.317.317 0 0 0-.291-.339.314.314 0 0 0-.342.267c-.045.293-.079.59-.113.883-.036.315-.073.641-.125.957a.352.352 0 0 0 .1.314.321.321 0 0 0 .046.041l.4.349.322.281a5.818 5.818 0 0 0-1.046 1.368c-.16-.079-.32-.155-.478-.231-.378-.179-.8-.382-1.2-.6q-.059-.148-.117-.3a8.041 8.041 0 0 0-.407-.939.317.317 0 0 0-.386-.14.287.287 0 0 0-.176.339 8.2 8.2 0 0 0 .328.989l.105-.038-.1.04c.05.131.1.261.145.39a.353.353 0 0 0 .034.07.347.347 0 0 0 .2.21c.437.168.873.378 1.3.581.163.078.33.157.5.235a4.083 4.083 0 0 0-.113.416l-.011.032a15.157 15.157 0 0 0-2.1.636 11.244 11.244 0 0 1-1.667.2 2.312 2.312 0 0 0-1.083.3 1.058 1.058 0 0 0-.335 1.536 1.374 1.374 0 0 0 1.25.443c.837.4 1.43 1.3 2.31 1.593a9.388 9.388 0 0 0 2 6.775c-.893 1.386-3 1.367-4.475 1.783a27.254 27.254 0 0 0-4.907 1.994c-.183.1-.38.215-.344.317.3.859 1.1.667 1.694.362.534-.272.9-.845 1.793-.971a5.384 5.384 0 0 0 .731-.093 16.961 16.961 0 0 1-1.909 1.253c-.7.364-1.883.505-2.129 1.378-.037.132 1.017.448 1.681.062.055-.032.228-.13.218-.176a15.021 15.021 0 0 1 4.92-2.785 18.388 18.388 0 0 1 6.189-.282c2.041.149 4.079.391 6.128.39a19.708 19.708 0 0 0 2.87-.193 5.366 5.366 0 0 0 1.847-.545 3.587 3.587 0 0 0 2.289 1.795 13.565 13.565 0 0 0 4.4.5 7.772 7.772 0 0 0 .963 1.233 16.823 16.823 0 0 0 1.566 1.595c.62.525 1.378.809 2 1.317a2.523 2.523 0 0 0 1.6.695.136.136 0 0 0 .2-.016.1.1 0 0 0 .009-.164 1.5 1.5 0 0 0-.347-1.034 2.048 2.048 0 0 0-.769-.387 4.878 4.878 0 0 1-.99-.512 11.624 11.624 0 0 1-2.461-2.469 3.942 3.942 0 0 0 .991.583 8.141 8.141 0 0 1 1.654 1 4.653 4.653 0 0 0 3.044 1.441.152.152 0 0 0 .128-.212z"/></g><g fill="#764abc"><path data-name="Path 209" d="M154.23 27.2a.849.849 0 0 0-.091-1.693h-.03a.846.846 0 0 0-.816.877.868.868 0 0 0 .242.559 5.406 5.406 0 0 1-2.479 2.373 4.087 4.087 0 0 1-2.464.469 2.1 2.1 0 0 1-1.542-.892 2.22 2.22 0 0 1-.121-2.343 3.558 3.558 0 0 1 1.028-1.209 9.97 9.97 0 0 1-.2-.771c-2.192 1.587-1.965 3.733-1.3 4.746a3.13 3.13 0 0 0 2.63 1.224 3.716 3.716 0 0 0 .907-.106 5.8 5.8 0 0 0 4.236-3.234z"/><path data-name="Path 210" d="M156.888 25.325a6.138 6.138 0 0 0-4.776-2.086h-.242a.831.831 0 0 0-.741-.453h-.03a.847.847 0 0 0 .03 1.693h.03a.851.851 0 0 0 .741-.514h.272a5.761 5.761 0 0 1 3.219.982 4.049 4.049 0 0 1 1.6 1.935 2.1 2.1 0 0 1-.03 1.784 2.219 2.219 0 0 1-2.071 1.239 3.866 3.866 0 0 1-1.476-.319 8.99 8.99 0 0 1-.68.544 4.666 4.666 0 0 0 1.95.469 3.281 3.281 0 0 0 2.932-1.6 3.414 3.414 0 0 0-.728-3.674z"/><path data-name="Path 211" d="M149.212 27.457a.849.849 0 0 0 .846.816h.03a.847.847 0 0 0-.03-1.693h-.032a.257.257 0 0 0-.106.015 5.538 5.538 0 0 1-.786-3.355 4.055 4.055 0 0 1 .892-2.343 2.622 2.622 0 0 1 1.859-.846c1.6-.03 2.282 1.965 2.328 2.766.2.045.529.151.756.227-.179-2.449-1.691-3.719-3.143-3.719a3.42 3.42 0 0 0-3.114 2.433 6.183 6.183 0 0 0 .6 5.26.679.679 0 0 0-.1.439z"/></g><g transform="translate(-30.583 -70.338)" fill="#61dafb"><path data-name="Path 212" d="M188.32 83.62c0-.836-1.047-1.628-2.652-2.12.37-1.636.206-2.938-.52-3.354a1.128 1.128 0 0 0-.576-.144v.574a.6.6 0 0 1 .293.067c.35.2.5.965.383 1.947a7.79 7.79 0 0 1-.131.756 12.468 12.468 0 0 0-1.633-.28 12.546 12.546 0 0 0-1.07-1.286 3.794 3.794 0 0 1 2.161-1.206V78A4.3 4.3 0 0 0 182 79.379a4.306 4.306 0 0 0-2.57-1.368v.574a3.81 3.81 0 0 1 2.161 1.2 12.147 12.147 0 0 0-1.062 1.284 12.013 12.013 0 0 0-1.636.283 8.938 8.938 0 0 1-.134-.746c-.121-.983.028-1.747.376-1.95a.573.573 0 0 1 .3-.067v-.574a1.147 1.147 0 0 0-.581.144c-.723.417-.885 1.716-.512 3.347-1.6.494-2.642 1.284-2.642 2.117s1.047 1.628 2.652 2.12c-.37 1.636-.206 2.938.52 3.354a1.131 1.131 0 0 0 .579.144 4.3 4.3 0 0 0 2.57-1.379 4.306 4.306 0 0 0 2.57 1.368 1.147 1.147 0 0 0 .581-.144c.723-.417.885-1.716.512-3.347 1.594-.493 2.636-1.285 2.636-2.119zm-3.35-1.72c-.1.332-.214.674-.347 1.016-.105-.206-.216-.412-.337-.617s-.244-.406-.37-.6c.365.057.718.123 1.054.201zm-1.178 2.739c-.2.347-.406.677-.62.983a13.564 13.564 0 0 1-2.321.002q-.32-.459-.622-.977t-.535-1.024a13.507 13.507 0 0 1 1.152-2.009 13.564 13.564 0 0 1 2.321-.002q.32.459.622.977c.2.337.373.679.535 1.024-.161.349-.339.694-.532 1.031zm.831-.334c.139.345.257.689.355 1.024a11.64 11.64 0 0 1-1.06.206c.126-.2.252-.4.37-.61s.23-.409.335-.615zm-2.608 2.745a10.608 10.608 0 0 1-.715-.823c.232.01.468.018.707.018s.481-.005.715-.018a10.042 10.042 0 0 1-.707.827zm-1.915-1.511a12.91 12.91 0 0 1-1.055-.2c.1-.332.214-.674.347-1.016.105.206.216.412.337.617s.246.404.371.599zm1.9-5.353a10.6 10.6 0 0 1 .715.823c-.232-.01-.468-.018-.707-.018s-.481.005-.715.018a10.041 10.041 0 0 1 .707-.823zm-1.9 1.514a14.11 14.11 0 0 0-.704 1.227 11.045 11.045 0 0 1-.355-1.024c.335-.078.69-.147 1.059-.203zm-2.328 3.22c-.911-.388-1.5-.9-1.5-1.3s.589-.916 1.5-1.3c.221-.1.463-.18.713-.26a12.353 12.353 0 0 0 .579 1.567 12.179 12.179 0 0 0-.571 1.559 9.953 9.953 0 0 1-.722-.264zm1.384 3.676c-.35-.2-.5-.965-.383-1.947.028-.242.075-.5.131-.756a12.467 12.467 0 0 0 1.633.28 12.546 12.546 0 0 0 1.07 1.286 3.794 3.794 0 0 1-2.161 1.206.614.614 0 0 1-.291-.065zm6.1-1.96c.121.983-.028 1.747-.376 1.95a.572.572 0 0 1-.3.067 3.81 3.81 0 0 1-2.161-1.2 12.147 12.147 0 0 0 1.062-1.284 12.013 12.013 0 0 0 1.636-.283 7.2 7.2 0 0 1 .139.752zm.99-1.716c-.221.1-.463.18-.713.26a12.353 12.353 0 0 0-.579-1.566 12.178 12.178 0 0 0 .571-1.559c.255.08.5.167.723.262.911.388 1.5.9 1.5 1.3s-.591.919-1.502 1.305z"/><circle data-name="Ellipse 1" cx="1.176" cy="1.176" r="1.176" transform="translate(180.832 82.445)"/></g></g></symbol><symbol viewBox="0 0 45 45" id="site-logo" xmlns="http://www.w3.org/2000/svg"><path data-name="Rectangle 22" fill="none" d="M0 0h45v45H0z"/><g><path data-name="Path 78" d="M30.58 31.1v5.56l13.9-13.9-13.9-13.9v5.56l8.34 8.34z"/><path data-name="Path 79" d="M13.9 31.1v5.56L0 22.76l13.9-13.9v5.56l-8.34 8.34z"/><path data-name="Path 80" d="M13.9 28.32h5.56L30.58 17.2h-5.56z"/></g></symbol><symbol viewBox="0 0 512 512" id="skype" xmlns="http://www.w3.org/2000/svg"><path d="M170.2 96c14 0 27.7 3.9 39.6 11.3l10.3 6.4 12-2c8.5-1.5 17.2-2.2 25.9-2.2 40.5 0 78.5 15.5 107 43.7 28.4 28 44.1 65.3 44.1 104.9 0 10.7-1.2 21.4-3.5 31.8l-2.5 11.1 5.1 10.2c5.1 10.1 7.7 20.9 7.7 32.2 0 40.1-33.3 72.7-74.2 72.7-12.5 0-24.3-2.9-35.2-8.7l-9.8-5.2-10.9 2c-9.1 1.7-18.5 2.5-27.8 2.5-40.5 0-78.5-15.5-107-43.7-28.4-28-44.1-65.3-44.1-104.9 0-10 1-20.1 3-29.9l2.5-12.2-6.4-10.7c-6.5-11.1-10-23.7-10-36.6 0-40.1 33.3-72.7 74.2-72.7m0-32C111.6 64 64 110.9 64 168.7c0 19.4 5.3 37.5 14.6 53-2.4 11.7-3.7 23.9-3.7 36.3 0 99.8 82 180.6 183.1 180.6 11.5 0 22.7-1 33.5-3 15 7.9 32.1 12.4 50.2 12.4 58.7 0 106.2-46.9 106.2-104.7 0-16.7-4-32.5-11.1-46.5 2.8-12.5 4.2-25.4 4.2-38.7 0-99.7-82-180.6-183.2-180.6-10.7 0-21.1.9-31.3 2.6C210.3 69.9 191 64 170.2 64z"/><path d="M351.9 344.1c-8.5 11.8-21 21.2-37.2 27.8-16.1 6.6-35.3 9.9-57.3 9.9-26.3 0-48.3-4.6-65.6-13.6-12.3-6.6-22.4-15.4-30.2-26.4-7.8-11-11.7-22-11.7-32.6 0-6.6 2.6-12.3 7.6-17.1 5-4.6 11.5-7 19.1-7 6.3 0 11.7 1.8 16.1 5.5 4.2 3.5 7.8 8.7 10.7 15.5 3.3 7.3 6.8 13.5 10.6 18.4 3.6 4.7 8.7 8.6 15.3 11.7 6.7 3.1 15.6 4.7 26.6 4.7 15.1 0 27.5-3.2 36.8-9.5 9.2-6.1 13.6-13.5 13.6-22.5 0-7.1-2.3-12.7-7.1-17.1-5-4.6-11.5-8.2-19.6-10.6-8.3-2.6-19.6-5.3-33.6-8.2-19-4-35.1-8.8-48-14.2-13.1-5.5-23.7-13.2-31.5-22.7-7.5-9.6-11.5-21.8-11.5-36.1 0-13.7 4.2-25.9 12.4-36.5 8.2-10.5 20.1-18.7 35.6-24.3 15.2-5.6 33.3-8.4 53.7-8.4 16.4 0 30.7 1.9 42.7 5.5 12.1 3.7 22.2 8.7 30.3 14.9 8 6.2 14 12.8 17.8 19.7 3.8 7 5.7 13.9 5.7 20.6 0 6.4-2.5 12.3-7.5 17.4-5 5.1-11.3 7.8-18.8 7.8-6.8 0-12.1-1.6-15.8-4.8-3.4-3-7-7.6-10.9-14.3-4.6-8.5-10.1-15.3-16.4-20.1-6.2-4.6-16.4-7-30.6-7-13.1 0-23.8 2.6-31.7 7.7-7.6 4.9-11.3 10.6-11.3 17.3 0 4.1 1.2 7.5 3.7 10.5 2.6 3.1 6.2 5.9 10.9 8.2 4.8 2.4 9.8 4.3 14.7 5.6 5.1 1.4 13.6 3.5 25.3 6.1 14.9 3.1 28.5 6.7 40.5 10.4 12.2 3.9 22.7 8.6 31.3 14.1 8.8 5.6 15.7 12.9 20.7 21.5 4.9 8.6 7.4 19.4 7.4 31.8 0 15-4.3 28.6-12.8 40.4z"/></symbol><symbol viewBox="0 0 1560 70" id="snow" xmlns="http://www.w3.org/2000/svg"><g fill-rule="nonzero" fill="none"><path d="M862.405 32c-3.2 0-3.213 5 0 5 3.212 0 3.212-5 0-5z" fill="#FFF"/><path d="M901.443 22c-1.92 0-1.928 3 0 3 1.927 0 1.927-3 0-3z" fill="#C7EBFF"/><path d="M932.405 23c-3.2 0-3.213 5 0 5 3.212 0 3.212-5 0-5zM781.443 12c-1.92 0-1.928 3 0 3 1.927 0 1.927-3 0-3zM711.443 32c-1.92 0-1.928 3 0 3 1.927 0 1.927-3 0-3z" fill="#FFF"/><path d="M802.443 35c-1.92 0-1.928 3 0 3 1.927 0 1.927-3 0-3z" fill="#C7EBFF"/><path d="M752.405 52c-3.2 0-3.213 5 0 5 3.212 0 3.212-5 0-5z" fill="#FFF"/><path d="M662.886 52c-3.84 0-3.855 6 0 6s3.855-6 0-6z" fill="#C7EBFF"/><path d="M631.443 12c-1.92 0-1.928 3 0 3 1.927 0 1.927-3 0-3z" fill="#FFF"/><path d="M532.405 32c-3.2 0-3.213 5 0 5 3.212 0 3.212-5 0-5z" fill="#C7EBFF"/><path d="M572.886 22c-3.84 0-3.855 6 0 6s3.855-6 0-6zM519.443 51c-1.92 0-1.928 3 0 3 1.927 0 1.927-3 0-3zM452.405 12c-3.2 0-3.213 5 0 5 3.212 0 3.212-5 0-5zM382.886 32c-3.84 0-3.855 6 0 6s3.855-6 0-6z" fill="#FFF"/><path d="M472.443 35c-1.92 0-1.928 3 0 3 1.927 0 1.927-3 0-3z" fill="#C7EBFF"/><path d="M421.443 52c-1.92 0-1.928 3 0 3 1.927 0 1.927-3 0-3z" fill="#FFF"/><path d="M332.886 52c-3.84 0-3.855 6 0 6s3.855-6 0-6z" fill="#C7EBFF"/><path d="M302.886 12c-3.84 0-3.855 6 0 6s3.855-6 0-6zM1371.443 32c-1.92 0-1.928 3 0 3 1.927 0 1.927-3 0-3zM1411.443 52c-1.92 0-1.928 3 0 3 1.927 0 1.927-3 0-3zM1177.405 11c-3.2 0-3.213 5 0 5 3.212 0 3.212-5 0-5zM1012.886 52c-3.84 0-3.855 6 0 6s3.855-6 0-6zM1142.886 12c-3.84 0-3.855 6 0 6s3.855-6 0-6z" fill="#FFF"/><path d="M1041.443 32c-1.92 0-1.928 3 0 3 1.927 0 1.927-3 0-3z" fill="#C7EBFF"/><path d="M1082.886 22c-3.84 0-3.855 6 0 6s3.855-6 0-6zM1081.443 52c-1.92 0-1.928 3 0 3 1.927 0 1.927-3 0-3zM962.405 12c-3.2 0-3.213 5 0 5 3.212 0 3.212-5 0-5zM405.443 6c-1.92 0-1.928 3 0 3 1.927 0 1.927-3 0-3z" fill="#FFF"/><path d="M982.443 35c-1.92 0-1.928 3 0 3 1.927 0 1.927-3 0-3z" fill="#C7EBFF"/><path d="M932.886 52c-3.84 0-3.855 6 0 6s3.855-6 0-6zM796.443 57c-1.92 0-1.928 3 0 3 1.927 0 1.927-3 0-3z" fill="#FFF"/><path d="M472.443 35c-1.92 0-1.928 3 0 3 1.927 0 1.927-3 0-3z" fill="#C7EBFF"/><path d="M421.443 52c-1.92 0-1.928 3 0 3 1.927 0 1.927-3 0-3z" fill="#FFF"/><path d="M332.886 52c-3.84 0-3.855 6 0 6s3.855-6 0-6z" fill="#C7EBFF"/><path d="M301.443 12c-1.92 0-1.928 3 0 3 1.927 0 1.927-3 0-3z" fill="#FFF"/><path d="M202.886 32c-3.84 0-3.855 6 0 6s3.855-6 0-6z" fill="#C7EBFF"/><path d="M242.405 22c-3.2 0-3.213 5 0 5 3.212 0 3.212-5 0-5zM242.886 52c-3.84 0-3.855 6 0 6s3.855-6 0-6zM22.886 13c-3.84 0-3.855 6 0 6s3.855-6 0-6zM121.443 12c-1.92 0-1.928 3 0 3 1.927 0 1.927-3 0-3z" fill="#FFF"/><path d="M142.443 35c-1.92 0-1.928 3 0 3 1.927 0 1.927-3 0-3z" fill="#C7EBFF"/><path d="M91.443 52c-1.92 0-1.928 3 0 3 1.927 0 1.927-3 0-3z" fill="#FFF"/><path d="M1.443 52c-1.92 0-1.928 3 0 3 1.927 0 1.927-3 0-3zM1417.443 6c-1.92 0-1.928 3 0 3 1.927 0 1.927-3 0-3z" fill="#C7EBFF"/><path d="M1556.886 46c-3.84 0-3.855 6 0 6s3.855-6 0-6z" fill="#FFF"/><path d="M1068.405-3c-3.2 0-3.213 5 0 5 3.212 0 3.212-5 0-5z" fill="#C7EBFF"/><path d="M1497.886 28c-3.84 0-3.855 6 0 6s3.855-6 0-6zM251.443 15c-1.92 0-1.928 3 0 3 1.927 0 1.927-3 0-3z" fill="#FFF"/><path d="M272.443 38c-1.92 0-1.928 3 0 3 1.927 0 1.927-3 0-3z" fill="#C7EBFF"/><path d="M221.443 55c-1.92 0-1.928 3 0 3 1.927 0 1.927-3 0-3z" fill="#FFF"/><path d="M131.443 55c-1.92 0-1.928 3 0 3 1.927 0 1.927-3 0-3z" fill="#C7EBFF"/><path d="M1247.886 66c-3.84 0-3.855 6 0 6s3.855-6 0-6z" fill="#FFF"/><path d="M1198.405 0c-3.2 0-3.213 5 0 5 3.212 0 3.212-5 0-5z" fill="#C7EBFF"/></g></symbol><symbol viewBox="0 0 512 512" id="telegram" xmlns="http://www.w3.org/2000/svg"><path d="M484.689 98.231l-69.417 327.37c-5.237 23.105-18.895 28.854-38.304 17.972L271.2 365.631l-51.034 49.086c-5.647 5.647-10.372 10.372-21.256 10.372l7.598-107.722L402.539 140.23c8.523-7.598-1.848-11.809-13.247-4.21L146.95 288.614 42.619 255.96c-22.694-7.086-23.104-22.695 4.723-33.579L455.423 65.166c18.893-7.085 35.427 4.209 29.266 33.065z"/></symbol></svg>