<svg xmlns="http://www.w3.org/2000/svg" width="256" height="256" viewBox="0 0 256 256">
  <g id="Group_5" data-name="Group 5" transform="translate(-402 -3906)">
    <path id="ampproject-official" d="M171.887,116.28l-53.7,89.36h-9.728l9.617-58.227-30.2.047a4.852,4.852,0,0,1-4.855-4.855,9.042,9.042,0,0,1,1.07-3.1l53.52-89.254,9.9.043-9.86,58.317,30.413-.043a4.852,4.852,0,0,1,4.855,4.855,4.745,4.745,0,0,1-1.033,2.854l0,0ZM128,0A128,128,0,1,0,256,128,127.994,127.994,0,0,0,128,0Z" transform="translate(402 3906)" fill="#fff" fill-rule="evenodd"/>
  </g>
</svg>
