<svg xmlns="http://www.w3.org/2000/svg" width="157.877" height="49.39" viewBox="0 0 157.877 49.39">
  <g id="Group_4" data-name="Group 4" transform="translate(-826 -7215)">
    <g id="diseños" transform="translate(826 7214.727)">
      <g id="Artboard" transform="translate(-713 -10)">
        <g id="promo-bar-navidad">
          <g id="background" transform="translate(1 -43)">
            <g id="santa" transform="translate(712 53)">
              <path id="Fill-1" d="M23.929,30.208c-.221-.105-.607-.156-.758-.35-.209-.268.056-.614.083-.882a1.448,1.448,0,0,0-.463-1.083c-.417-.47-.927-.84-1.058-1.463a1.544,1.544,0,0,1,.1-.967c.093-.2.295-.39.307-.624.022-.4-.435-.629-.748-.826-.6-.38-1.206-.76-1.819-1.126a6.228,6.228,0,0,0,.789-2.559,4.877,4.877,0,0,0-.378-2.544A2.12,2.12,0,0,0,21.1,15.771c-.008-.1-.093-.217-.208-.2a2.8,2.8,0,0,0-1.785.954.3.3,0,0,0-.123-.123,6.49,6.49,0,0,0-2.393-.835c-.943-.126-1.852.034-2.79-.024a6.48,6.48,0,0,1-2.738-.864,21.52,21.52,0,0,1-2.013-1.442A8.011,8.011,0,0,1,9.617,9.3c.214-.427.577-.878.449-1.39a1,1,0,0,0-.477-.6.358.358,0,0,0,.037-.05l.046-.079a4.74,4.74,0,0,1,.659-.943l.018-.02c.757-.072,1.519-.223,2.258-.369.285-.056.569-.113.852-.165l.392-.071c.918-.167,1.868-.341,2.8-.519a.491.491,0,0,0,.3-.178.353.353,0,0,0,.176-.145c.6-.938,1.294-1.822,1.965-2.678.364-.464.741-.944,1.1-1.429a.23.23,0,0,0-.026-.31.261.261,0,0,0-.341-.015,17.062,17.062,0,0,0-3.244,3.941l-.059.008c-.956.183-1.926.376-2.864.564l-.457.091c-.272.054-.549.105-.825.157l-.248.046Q12,4.843,11.867,4.55c-.194-.426-.395-.866-.581-1.3a2.364,2.364,0,0,1,.066-1.536,6.926,6.926,0,0,0,.152-.692.31.31,0,0,0-.228-.35.3.3,0,0,0-.362.2c-.024.068-.051.141-.08.216a3.9,3.9,0,0,0-.376,2.024,8.749,8.749,0,0,0,.668,1.683c.082.17.16.334.233.5-.5.1-.9.2-1.267.313l-.019.006a.348.348,0,0,0-.045,0q-.337-.253-.678-.5c-.531-.391-1.079-.8-1.6-1.216A2.713,2.713,0,0,1,6.578,1.8a.319.319,0,0,0-.622-.077,2.476,2.476,0,0,0,.857,2.341A17.128,17.128,0,0,0,8.8,5.675c.189.138.383.28.574.422-.342-.133-.691-.243-1.031-.35-.3-.1-.616-.194-.917-.307A5.479,5.479,0,0,1,5.634,4.222a.265.265,0,0,0-.317-.031.262.262,0,0,0-.117.29C5.525,5.74,7.031,6.2,8.241,6.567c.328.1.641.2.908.3-.019.06-.036.117-.05.174a.279.279,0,0,0-.007.066,7.147,7.147,0,0,0-3.038.415c-.981.209-2.435.011-3,1.064a.157.157,0,0,0-.018.062.822.822,0,0,0,.191,1.045c.653.592,1.981.551,2.516,1.209a15.161,15.161,0,0,0-1.176,1.942,9.586,9.586,0,0,0-.608,2.333,6.678,6.678,0,0,0-.05,3.159c-.626-.112-1.259-.2-1.886-.295q-.652-.1-1.3-.2c-.182-.028-.429-.1-.592.018-.356.263.13.777.278,1,.457.705.916,1.41,1.383,2.109A1.032,1.032,0,0,0,.5,21.8a2.4,2.4,0,0,0,.34,1.194q.369.861.764,1.709.767,1.651,1.639,3.25c.384.7.915,1.49,1.831,1.274a.128.128,0,0,0,.1-.11.151.151,0,0,0,.039-.055,1.246,1.246,0,0,0-.19-1.235A1.794,1.794,0,0,0,3.966,27.3c-.328-.706-.642-1.418-.929-2.144q-.262-.665-.5-1.338c-.18-.5-.855-1.95.318-1.793a.08.08,0,0,0,.029,0,.052.052,0,0,0,.023.038,3.827,3.827,0,0,1,1.4,1.368,2.843,2.843,0,0,0,.761,1.126c.241.168.532.243.778.4.226.147.417.343.638.5a1.222,1.222,0,0,0,1.2.208.279.279,0,0,0,.061-.264,4.532,4.532,0,0,0-.618-1.355c-.3-.355-.686-.322-1.092-.333a14.511,14.511,0,0,1-1.739-1.816c3.534-.825,7,.683,10.482,1.2a3.15,3.15,0,0,0,.662,1.186c-.077.294-.142.592-.2.885,0,0,0,0,0,0a14.236,14.236,0,0,0-1.637.867,1.849,1.849,0,0,0-.858,1.257,36.383,36.383,0,0,0-.769,4.534c0,.038.074.41.207.3.481-.408,1.251-.945,1.462-1.568a.59.59,0,0,0-.006-.442.99.99,0,0,0-.148-.2,3.288,3.288,0,0,1-.254-.373c.265-.291.708-.505.684-.874-.009-.139-.1-.217-.173-.331a1.085,1.085,0,0,1-.178-.686,4.22,4.22,0,0,1,1.522-.71c.663-.248,1.329-.489,1.988-.748.328-.129.881-.264,1.079-.584a.912.912,0,0,0,.092-.546l.147.064a7.246,7.246,0,0,0,2.288.526,32.094,32.094,0,0,0,1.4,4.4c.423,1.134.92,2.156,2.279,2.222a.119.119,0,0,0,.114-.058.257.257,0,0,0,.036-.037,1.3,1.3,0,0,0-.568-1.968" fill="#5eb2fc" fill-rule="evenodd"/>
              <path id="Fill-3" d="M5.864,18.125a285.43,285.43,0,0,0,52.331,3.193c9.2-.284,18.025-1.15,27.006-1.84a182.772,182.772,0,0,1,23.592-.59c7.626.4,15,1.554,20.029,3.733.237.1-.254.251-.5.148-11.011-4.693-29.677-4.1-44.425-2.917-8.519.681-16.937,1.461-25.674,1.728-8.451.258-17,.142-25.407-.332A256.092,256.092,0,0,1,5.6,18.305c-.335-.056-.069-.232.265-.18" fill="#5eb2fc" fill-rule="evenodd"/>
              <path id="Fill-5" d="M4.6,16.128a241.286,241.286,0,0,0,48.133,4.552c8.945.022,17.823-.311,26.544-.864,7.928-.5,15.888-1.214,24.076-.5a93.939,93.939,0,0,1,21.289,4.473c.281.093-.115.233-.4.143A95.7,95.7,0,0,0,103.727,19.6c-8.667-.812-17.1.02-25.5.532a339.687,339.687,0,0,1-49.213-.2A181.845,181.845,0,0,1,4.354,16.286c-.284-.066-.047-.219.247-.157" fill="#5eb2fc" fill-rule="evenodd"/>
              <path id="Fill-10" d="M137.045,46.206l-.516-.084c-.034-1.13-.157-2.373-.3-3.5.181.018.361.034.539.046a20.261,20.261,0,0,1,.278,3.539Zm-1.381,1.572c-1.543-.324-3.1-.6-4.706-.8a112.565,112.565,0,0,1-12.5-2,41.552,41.552,0,0,1-9.562-3.658c-.236-.126-.48-.265-.726-.41a5.429,5.429,0,0,0,2.011-.129l.051-.015a14.452,14.452,0,0,0,3.244,1.69,49.336,49.336,0,0,0,13.676,3.266c2.643.247,5.294.381,7.934.67.206.022.411.05.616.079a11.667,11.667,0,0,1-.037,1.3Zm-21.014-10,1.643.384c-1.357,1.054-3.16,2.127-4.822,2.06a16.35,16.35,0,0,0,3.179-2.444ZM133.556,42.2l.007-.034a18.341,18.341,0,0,0,1.827.357c.1,1.124.243,2.345.294,3.476-.965-.139-1.939-.253-2.933-.334a101.891,101.891,0,0,1-11.4-1.343,37.658,37.658,0,0,1-8.8-2.955c-.219-.105-.445-.222-.674-.344a4.917,4.917,0,0,0,1.818-.193,11,11,0,0,0,3.512-2.454Zm17.385-18.524a16.357,16.357,0,0,0-2.091-.666,4.386,4.386,0,0,0,.187-1.934c-.119-.662-.622-1-.855-1.592-.492-1.253.624-2.8-.85-3.741a8.751,8.751,0,0,0-1.535-.2c-.034-.739.653-.539.812-1.3a.3.3,0,0,0-.375-.349c-1.12.193-1.813.333-2.717-.426-.3-.249-.78-.25-.557.1.691,1.075,1.313,1.117,1.778,2.217a3.257,3.257,0,0,0-.423.252,2.82,2.82,0,0,0-.75.829,3.786,3.786,0,0,0-2.84.72,3.893,3.893,0,0,0-1.4,2.307,3.219,3.219,0,0,0-1.341.62,4.33,4.33,0,0,0-.911,1c-.087,0-.174.006-.26.013,0-.006,0-.011,0-.017a2.458,2.458,0,0,0-.355-1.8,4.852,4.852,0,0,0,.881-.564s0-.007.007-.01a6.215,6.215,0,0,0-.4-1.185,3.6,3.6,0,0,0,3.749-2.067,1.113,1.113,0,0,0,.579.125,1.13,1.13,0,1,0-1.2-1.056,1.121,1.121,0,0,0,.081.338c-1.491.1-1.736-1.866-2.409-2.751a4.133,4.133,0,0,0-1.253-1.076,5.674,5.674,0,0,0-3.681-.614c-2.091.336-2.952,1.8-2.583,3.479a1.623,1.623,0,0,0-.517.474,10.847,10.847,0,0,0-.977,1.875c-.907.3-1.816.9-2.625,1.095a.279.279,0,0,0-.2.386,2.808,2.808,0,0,0-.293,0c-.465.025-1.73.661-2.145.223.033-.079.07-.156.1-.236.045-.119-.2-.554-.343-.494-.468.2-1.656-1.153-2.388-1.157a2.5,2.5,0,0,0-1.782.937,2.393,2.393,0,0,0,.317,3.531,5.282,5.282,0,0,0,.833.575q.382.207.774.4a1.882,1.882,0,0,1,.962.873,4.873,4.873,0,0,0,.653.311c.546.285.936.8,1.6.949h.007a4.111,4.111,0,0,1-1.452,2.725,1.61,1.61,0,0,0-.3.517,2.229,2.229,0,0,0-.1.862c-.135.078-.271.162-.4.258-.155.111-.3.231-.449.354a3.888,3.888,0,0,0-4.089,1.931,4.455,4.455,0,0,0-.073,4.825c-1.727-.031-4.551-.549-5.574,1.122-.191.311.109.572.391.538l1.557.364a13.811,13.811,0,0,1-3.761,2.135,4.154,4.154,0,0,1-.879-1.148,4.962,4.962,0,0,1-.2-2.618,1.256,1.256,0,1,0,1.218-1.563c-1.385-.29-2.053,1.384-2.019,2.845a4.038,4.038,0,0,0,1.165,2.685,4.056,4.056,0,0,1-2.881-.285,4.885,4.885,0,0,1-1.166-1.55,5.461,5.461,0,0,1-.1-2.893,1.384,1.384,0,1,0,1.7-1.624,1.355,1.355,0,0,0-.289-.043c-1.513-.382-2.325,1.432-2.354,3.043a4.555,4.555,0,0,0,1.352,3.229.621.621,0,0,0,.14.153,13.843,13.843,0,0,0,4.211,2.651,54.444,54.444,0,0,0,14.92,4.223c2.9.393,5.816.661,8.71,1.1,2.557.388,4.955,1.252,7.478,1.758a.29.29,0,0,0,.147-.561c-1.562-.413-3.1-.8-4.64-1.141,0,0,0-.007,0-.012a12.317,12.317,0,0,0,.055-1.333c1.808.32,3.567.812,5.388,1.1a.263.263,0,0,0,.112-.514c-1.431-.316-2.837-.608-4.247-.86a.042.042,0,0,0,0-.011,19.394,19.394,0,0,0-.244-3.619c.356.009.706.008,1.044-.006,2.294-.092,3.965-1.473,5.457-3.151,3.585-4.035,4.968-9.22,5.174-14.532a4.236,4.236,0,0,1,1.657-.747.329.329,0,0,0,.06-.6Z" fill="#5eb2fc" fill-rule="evenodd"/>
              <path id="Fill-13" d="M102.266,28.844a1.457,1.457,0,0,0-1.58-1.1,10.731,10.731,0,0,1-1.779-1.23c-.45-.309-.909-.6-1.364-.894A10.616,10.616,0,0,1,96.9,24.43c-.141-.312-.265-.622-.613-.743a3.9,3.9,0,0,0-1.481.043c-.33.028-.661.052-.991.08a.151.151,0,0,0-.066-.036,2.21,2.21,0,0,1-1.534-1.31,9.251,9.251,0,0,1-.246-2.016,2.242,2.242,0,0,0-.745-1.4.667.667,0,0,0,.481-.293,1.532,1.532,0,0,0,.105-.932,4.231,4.231,0,0,0-.132-1.232c-.253-.644-.891-.189-1.282.062a2.952,2.952,0,0,0-1.18,1.237c-1.184.064-2.368.137-3.552.207-1.112.066-2.24.092-3.356.187-.554-.3-1.106-.6-1.646-.93-.445-.271-.877-.566-1.313-.852-.273-1.209-.515-2.455-.9-3.628a8.239,8.239,0,0,0,.5-1.324,1.287,1.287,0,0,0-.523-1.489,9.747,9.747,0,0,1,.72-2.333c.778,0,1.568-.069,2.338-.133.549-.046,1.118-.092,1.67-.115,1.529-.059,3.017-.083,4.424-.072a.419.419,0,0,0,.381-.22c.046-.033.645-1.065.91-1.521l.011-.018c.514-.885,1.045-1.8,1.51-2.731a.331.331,0,0,0-.13-.44.32.32,0,0,0-.431.1c-.581.862-1.115,1.774-1.632,2.657-.25.427-.509.868-.77,1.3-.321,0-.663.01-1.039.019A9.27,9.27,0,0,1,86.9,4.939l.006-.014c.054-.142.11-.285.163-.43a.338.338,0,0,0-.168-.422.331.331,0,0,0-.43.108,6.769,6.769,0,0,0-.892,2.4c-.3.01-.6.021-.885.033l0-.008a2.1,2.1,0,0,1,.163-1.955.317.317,0,0,0-.508-.362,2.441,2.441,0,0,0-.467,2.364c-.3.016-.6.034-.881.052l-.211.013a.356.356,0,0,0-.064-.053,7.231,7.231,0,0,1-1.312-1.224c0-.021-.059-.167-.065-.189a8.562,8.562,0,0,1-.157-1.033c-.016-.123-.023-.25-.031-.393a3.233,3.233,0,0,0-.12-.832.289.289,0,0,0-.277-.2.281.281,0,0,0-.267.2,5.069,5.069,0,0,0,.1,2.315c.017.082.032.161.046.236a.946.946,0,0,0,.217.409,4.272,4.272,0,0,0,.794.83,18.791,18.791,0,0,0-2.711.31.334.334,0,0,0-.054-.015,16.051,16.051,0,0,1-1.925-.56l-.168-.45-.011-.029c-.329-.882-.668-1.794-1.073-2.654a.313.313,0,0,0-.4-.158.318.318,0,0,0-.2.383c.254.91.59,1.814.915,2.689q.092.247.183.494a.409.409,0,0,0,.256.25,6.591,6.591,0,0,0,1.836.7,7.909,7.909,0,0,0-.359,1.064l-.293-.014c-.923-.043-1.879-.087-2.815-.2l-.032,0c-.135-.175-.284-.336-.43-.493l-.007-.009-.175-.19-.844-.943a.358.358,0,0,0-.348-.116.4.4,0,0,0-.289.266.361.361,0,0,0,.085.358l.867.922c.061.065.121.132.183.2a5.029,5.029,0,0,0,.658.642l.007.005a.386.386,0,0,0,.262.138,22.1,22.1,0,0,0,3.033.141c-.012.078-.024.169-.033.229a1.839,1.839,0,0,0-1.261.134c-1.38.718-2.822.494-4.227,1.189-.718.355-1.46,1.149-.785,1.834.37.377.955.359,1.436.452a2.465,2.465,0,0,1,1.94,1.425,4.046,4.046,0,0,0-.85,1.3,5.517,5.517,0,0,0-.126,2.289c.063.926.165,1.849.29,2.769a7.776,7.776,0,0,0,.476,2.1c-.648.127-1.293.274-1.938.418a3.331,3.331,0,0,0-1.572.509c-.814.792.805,1.9,1.319,2.308a11.3,11.3,0,0,0,3.3,1.865,5.422,5.422,0,0,0,3.669.246.154.154,0,0,0,.1-.157.136.136,0,0,0,.03-.139c-.157-.5-.362-.9-.918-1a2.736,2.736,0,0,0-.888.026A1.089,1.089,0,0,0,77,26.83a2.073,2.073,0,0,0-.749.082c-.131.028-.26.049-.389.069a17.487,17.487,0,0,0-1.414-1.245,13.089,13.089,0,0,1,1.617.058,4.429,4.429,0,0,0,1.541.016c.844-.219,1.215-1.079,1.837-1.621a9.118,9.118,0,0,0,4.723.962,11.184,11.184,0,0,0,4.387-1.021,4.484,4.484,0,0,0,2.695,1.63c1.4.281,2.879.062,4.2.732l.016.006c1.311,1.6,2.723,4,5.332,3.745a.138.138,0,0,0,.135-.122.142.142,0,0,0,.035-.145,1.039,1.039,0,0,0-.651-.81,2.4,2.4,0,0,0-.9-.117s-.005-.01-.01-.014a26.988,26.988,0,0,1-2.593-2.756,15.638,15.638,0,0,0,2.15,1.951,6.732,6.732,0,0,0,3.228,1.045c.167.01.1-.349.08-.429" fill="#5eb2fc" fill-rule="evenodd"/>
              <path id="Fill-15" d="M67.264,30.949a1.621,1.621,0,0,0-.637-1.16,1.674,1.674,0,0,0-.585-.27,1.459,1.459,0,0,1-.841-.348c-.085-.077-.155-.168-.243-.242a3.974,3.974,0,0,0-1.428-.668,4.631,4.631,0,0,1-1.266-.585c0-.007-.006-.013-.011-.02-.411-.629-.654-1.24-1.449-1.357a25.644,25.644,0,0,0-2.708-.3,4.155,4.155,0,0,1-1.147-2.531,4.129,4.129,0,0,0-.744-1.984,1.7,1.7,0,0,0,.956-1.723c-.021-.194-.1-.58-.286-.7s-.413,0-.593.053a5.421,5.421,0,0,0-1.663.925,3.791,3.791,0,0,0-2.974-1.05c-1.1.061-2.164.339-3.263.38a13.508,13.508,0,0,1-2.95-.28,6.232,6.232,0,0,0-3.991-1.89c-.562-.768-1.091-1.558-1.647-2.33a7.047,7.047,0,0,0,.18-1.914,1.615,1.615,0,0,0-.612-1.127,1.4,1.4,0,0,0-.3-.144l.008-.031c.342-1.387,1.566-2.369,2.75-3.319.341-.274.664-.533.969-.8a33.713,33.713,0,0,0,4.121-4.342.2.2,0,0,0,.014-.02.354.354,0,0,0,.111-.173A12.974,12.974,0,0,0,47.494.617a.3.3,0,0,0-.25-.342.294.294,0,0,0-.319.27,14.874,14.874,0,0,1-.5,2.22c0,.009,0,.017-.006.025-.159.183-.318.366-.478.544a1.949,1.949,0,0,1-.035-.6.492.492,0,0,0-.083-.35.184.184,0,0,0-.136-.064c-.143,0-.265.159-.3.4a3.35,3.35,0,0,0,.01,1.22q-.139.151-.277.3c-.038-.1-.075-.2-.111-.295L45,3.926q-.076-.2-.153-.4l0-.009a8.522,8.522,0,0,0,.008-1.283.262.262,0,1,0-.523.029,9.3,9.3,0,0,1-.053,1.248.291.291,0,0,0,0,.047.3.3,0,0,0,0,.172c.04.129.082.258.123.387l.014.042c.066.2.133.414.2.623-.268.277-.536.547-.8.8a15.437,15.437,0,0,0-.285-1.709.306.306,0,0,0-.367-.232A.31.31,0,0,0,42.918,4a12.936,12.936,0,0,1,.252,2.187c-.3.279-.6.55-.892.806l-.119-.117a2.335,2.335,0,0,1-.833-1.243c-.023-.164-.037-.328-.051-.488A4.975,4.975,0,0,0,41.106,4.1a.271.271,0,0,0-.33-.184.275.275,0,0,0-.213.317,5.618,5.618,0,0,1,.059.77,4.2,4.2,0,0,0,.14,1.147,3.293,3.293,0,0,0,.945,1.261l.042.041-.2.163q-.2.162-.4.326c-.3.241-.606.489-.907.754q-.212-.157-.421-.317L39.591,8.2c.015-.3.043-.614.067-.888.026-.29.052-.59.067-.887a.317.317,0,0,0-.291-.339.314.314,0,0,0-.342.267c-.045.293-.079.59-.113.883-.036.315-.073.641-.125.957a.352.352,0,0,0,.1.314A.321.321,0,0,0,39,8.548c.133.117.268.233.4.349l.322.281a5.818,5.818,0,0,0-1.046,1.368c-.16-.079-.32-.155-.478-.231-.378-.179-.8-.382-1.2-.6q-.059-.148-.117-.3a8.041,8.041,0,0,0-.407-.939.317.317,0,0,0-.386-.14.287.287,0,0,0-.176.339,8.2,8.2,0,0,0,.328.989l.105-.038-.1.04c.05.131.1.261.145.39a.353.353,0,0,0,.034.07.347.347,0,0,0,.2.21c.437.168.873.378,1.3.581.163.078.33.157.5.235a4.083,4.083,0,0,0-.113.416L38.3,11.6a15.157,15.157,0,0,0-2.1.636,11.244,11.244,0,0,1-1.667.2,2.312,2.312,0,0,0-1.083.3,1.058,1.058,0,0,0-.335,1.536,1.374,1.374,0,0,0,1.25.443c.837.4,1.43,1.3,2.31,1.593a9.388,9.388,0,0,0,2,6.775c-.893,1.386-3,1.367-4.475,1.783a27.254,27.254,0,0,0-4.907,1.994c-.183.1-.38.215-.344.317.3.859,1.1.667,1.694.362.534-.272.9-.845,1.793-.971a5.384,5.384,0,0,0,.731-.093,16.961,16.961,0,0,1-1.909,1.253c-.7.364-1.883.505-2.129,1.378-.037.132,1.017.448,1.681.062.055-.032.228-.13.218-.176a15.021,15.021,0,0,1,4.92-2.785,18.388,18.388,0,0,1,6.189-.282c2.041.149,4.079.391,6.128.39a19.708,19.708,0,0,0,2.87-.193,5.366,5.366,0,0,0,1.847-.545,3.587,3.587,0,0,0,2.289,1.795,13.565,13.565,0,0,0,4.4.5,7.772,7.772,0,0,0,.963,1.233A16.823,16.823,0,0,0,62.2,30.7c.62.525,1.378.809,2,1.317a2.523,2.523,0,0,0,1.6.695.136.136,0,0,0,.2-.016.1.1,0,0,0,.009-.164,1.5,1.5,0,0,0-.347-1.034,2.048,2.048,0,0,0-.769-.387,4.878,4.878,0,0,1-.99-.512,11.624,11.624,0,0,1-2.461-2.469,3.942,3.942,0,0,0,.991.583,8.141,8.141,0,0,1,1.654,1,4.653,4.653,0,0,0,3.044,1.441.152.152,0,0,0,.128-.212Z" fill="#5eb2fc" fill-rule="evenodd"/>
            </g>
          </g>
        </g>
      </g>
    </g>
    <g id="redux" transform="translate(960.85 7221.025)">
      <path id="Path_209" data-name="Path 209" d="M19.38,50.63a.849.849,0,0,0-.091-1.693h-.03a.846.846,0,0,0-.816.877.868.868,0,0,0,.242.559,5.406,5.406,0,0,1-2.479,2.373,4.087,4.087,0,0,1-2.464.469,2.1,2.1,0,0,1-1.542-.892,2.22,2.22,0,0,1-.121-2.343,3.558,3.558,0,0,1,1.028-1.209c-.06-.2-.151-.529-.2-.771-2.192,1.587-1.965,3.733-1.3,4.746a3.13,3.13,0,0,0,2.63,1.224,3.716,3.716,0,0,0,.907-.106A5.8,5.8,0,0,0,19.38,50.63Z" transform="translate(0 -29.455)" fill="#764abc"/>
      <path id="Path_210" data-name="Path 210" d="M46.1,38.739a6.138,6.138,0,0,0-4.776-2.086h-.242a.831.831,0,0,0-.741-.453h-.03a.847.847,0,0,0,.03,1.693h.03a.851.851,0,0,0,.741-.514h.272a5.761,5.761,0,0,1,3.219.982,4.049,4.049,0,0,1,1.6,1.935,2.1,2.1,0,0,1-.03,1.784,2.219,2.219,0,0,1-2.071,1.239A3.866,3.866,0,0,1,42.626,43c-.166.151-.469.393-.68.544a4.666,4.666,0,0,0,1.95.469,3.281,3.281,0,0,0,2.932-1.6A3.414,3.414,0,0,0,46.1,38.739Z" transform="translate(-24.062 -19.439)" fill="#764abc"/>
      <path id="Path_211" data-name="Path 211" d="M27.686,21.432a.849.849,0,0,0,.846.816h.03a.847.847,0,0,0-.03-1.693H28.5a.257.257,0,0,0-.106.015,5.538,5.538,0,0,1-.786-3.355,4.055,4.055,0,0,1,.892-2.343,2.622,2.622,0,0,1,1.859-.846c1.6-.03,2.282,1.965,2.328,2.766.2.045.529.151.756.227C33.264,14.57,31.752,13.3,30.3,13.3a3.42,3.42,0,0,0-3.114,2.433,6.183,6.183,0,0,0,.6,5.26A.679.679,0,0,0,27.686,21.432Z" transform="translate(-13.324)" fill="#764abc"/>
    </g>
    <g id="react" transform="translate(795.417 7144.662)">
      <path id="Path_212" data-name="Path 212" d="M188.32,83.62c0-.836-1.047-1.628-2.652-2.12.37-1.636.206-2.938-.52-3.354a1.128,1.128,0,0,0-.576-.144v.574a.6.6,0,0,1,.293.067c.35.2.5.965.383,1.947-.028.242-.075.5-.131.756a12.468,12.468,0,0,0-1.633-.28,12.546,12.546,0,0,0-1.07-1.286,3.794,3.794,0,0,1,2.161-1.206V78h0A4.3,4.3,0,0,0,182,79.379a4.306,4.306,0,0,0-2.57-1.368v.574a3.81,3.81,0,0,1,2.161,1.2,12.147,12.147,0,0,0-1.062,1.284,12.013,12.013,0,0,0-1.636.283c-.059-.257-.1-.507-.134-.746-.121-.983.028-1.747.376-1.95a.573.573,0,0,1,.3-.067v-.574h0a1.147,1.147,0,0,0-.581.144c-.723.417-.885,1.716-.512,3.347-1.6.494-2.642,1.284-2.642,2.117s1.047,1.628,2.652,2.12c-.37,1.636-.206,2.938.52,3.354a1.131,1.131,0,0,0,.579.144,4.3,4.3,0,0,0,2.57-1.379,4.306,4.306,0,0,0,2.57,1.368,1.147,1.147,0,0,0,.581-.144c.723-.417.885-1.716.512-3.347C187.278,85.246,188.32,84.454,188.32,83.62ZM184.97,81.9c-.1.332-.214.674-.347,1.016-.105-.206-.216-.412-.337-.617s-.244-.406-.37-.6C184.281,81.756,184.634,81.822,184.97,81.9Zm-1.178,2.739c-.2.347-.406.677-.62.983-.383.033-.772.051-1.163.051s-.777-.018-1.158-.049q-.32-.459-.622-.977t-.535-1.024c.159-.345.34-.689.532-1.026s.406-.676.62-.983c.383-.033.772-.051,1.163-.051s.777.018,1.158.049q.32.459.622.977c.2.337.373.679.535,1.024C184.163,83.962,183.985,84.307,183.792,84.644Zm.831-.334c.139.345.257.689.355,1.024-.337.082-.692.152-1.06.206.126-.2.252-.4.37-.61S184.518,84.516,184.623,84.31Zm-2.608,2.745a10.608,10.608,0,0,1-.715-.823c.232.01.468.018.707.018s.481-.005.715-.018A10.042,10.042,0,0,1,182.015,87.054ZM180.1,85.539c-.365-.054-.718-.121-1.055-.2.1-.332.214-.674.347-1.016.105.206.216.412.337.617S179.975,85.344,180.1,85.539Zm1.9-5.353a10.6,10.6,0,0,1,.715.823c-.232-.01-.468-.018-.707-.018s-.481.005-.715.018A10.041,10.041,0,0,1,182,80.186ZM180.1,81.7c-.126.2-.252.4-.37.61s-.229.412-.334.617c-.139-.345-.257-.689-.355-1.024C179.376,81.825,179.731,81.756,180.1,81.7Zm-2.328,3.22c-.911-.388-1.5-.9-1.5-1.3s.589-.916,1.5-1.3c.221-.1.463-.18.713-.26a12.353,12.353,0,0,0,.579,1.567,12.179,12.179,0,0,0-.571,1.559C178.236,85.1,177.995,85.017,177.771,84.922Zm1.384,3.676c-.35-.2-.5-.965-.383-1.947.028-.242.075-.5.131-.756a12.467,12.467,0,0,0,1.633.28,12.546,12.546,0,0,0,1.07,1.286,3.794,3.794,0,0,1-2.161,1.206A.614.614,0,0,1,179.155,88.6Zm6.1-1.96c.121.983-.028,1.747-.376,1.95a.572.572,0,0,1-.3.067,3.81,3.81,0,0,1-2.161-1.2,12.147,12.147,0,0,0,1.062-1.284,12.013,12.013,0,0,0,1.636-.283A7.2,7.2,0,0,1,185.256,86.638Zm.99-1.716c-.221.1-.463.18-.713.26a12.353,12.353,0,0,0-.579-1.566,12.178,12.178,0,0,0,.571-1.559c.255.08.5.167.723.262.911.388,1.5.9,1.5,1.3S187.157,84.536,186.246,84.922Z" fill="#61dafb"/>
      <path id="Path_213" data-name="Path 213" d="M320.8,78.4Z" transform="translate(-141.368 -0.39)" fill="#61dafb"/>
      <circle id="Ellipse_1" data-name="Ellipse 1" cx="1.176" cy="1.176" r="1.176" transform="translate(180.832 82.445)" fill="#61dafb"/>
      <path id="Path_214" data-name="Path 214" d="M520.5,78.1Z" transform="translate(-335.931 -0.097)" fill="#61dafb"/>
    </g>
  </g>
</svg>
