<svg id="baubles" version="1.1" viewBox="0 0 58 59" xmlns="http://www.w3.org/2000/svg" xmlns:xlink="http://www.w3.org/1999/xlink"><title/><desc/><defs/><g fill="none" fill-rule="evenodd" id="Page-1" stroke="none" stroke-width="1"><g id="026---Baubles"><circle cx="40" cy="33" fill="#ED634C" fill-rule="nonzero" id="Oval" r="18"/><path d="M58,33 C58,33.19 58,33.39 57.99,33.58 C57.99,33.8 57.98,34.01005 57.96,34.22 C57.94,34.55 57.91,34.88 57.86,35.2 C57.7092767,36.4964725 57.410667,37.7714353 56.97,39 L35.89,39 L35.33,36.41 L35.16,35.6 C35.1123178,35.4336867 35.0555662,35.2701086 34.99,35.11 C34.0661519,32.4090766 32.505494,29.9703342 30.44,28 L57.29,28 C57.7614219,29.6248128 58.00046,31.3081799 58,33 L58,33 Z" fill="#F6DB6D" id="Shape"/><path d="M57.99,33.58 C57.99,33.8 57.98,34.01005 57.96,34.22 C57.94,34.55 57.91,34.88 57.86,35.2 L53.99,29.39 L47.41,38.79 C47.3423993,38.8875374 47.2374065,38.9527053 47.12,38.97 C46.9236487,39.0124782 46.7198706,38.9432705 46.59,38.79 L40.01,29.39 L35.33,36.41 L35.16,35.6 C35.1123178,35.4336867 35.0555662,35.2701086 34.99,35.11 L39.58,28.22 C39.6756088,28.0875709 39.8267918,28.0064483 39.99,28 L40,28 C40.1635176,27.9955825 40.3180326,28.0747244 40.41,28.21 L47,37.63 L53.59,28.21 C53.6910177,28.085413 53.8398677,28.0091728 54,28 L54.01,28 C54.1732082,28.0064483 54.3243912,28.0875709 54.42,28.22 L57.99,33.58 Z" fill="#FAEDBD" fill-rule="nonzero" id="Shape"/><path d="M40.5,4.55054 L40.5,1 C40.5,0.723857625 40.2761424,0.5 40,0.5 C39.7238576,0.5 39.5,0.723857625 39.5,1 L39.5,4.55054 C37.7823911,4.796276 36.5051189,6.26490916 36.5,8 L36.5,12 C36.5,12.2761424 36.7238576,12.5 37,12.5 C37.2761424,12.5 37.5,12.2761424 37.5,12 L37.5,8 C37.5,6.61928813 38.6192881,5.5 40,5.5 C41.3807119,5.5 42.5,6.61928813 42.5,8 L42.5,12 C42.5,12.2761424 42.7238576,12.5 43,12.5 C43.2761424,12.5 43.5,12.2761424 43.5,12 L43.5,8 C43.4948811,6.26490916 42.2176089,4.796276 40.5,4.55054 Z" fill="#717275" fill-rule="nonzero" id="Shape"/><path d="M18.5,12.55054 L18.5,1 C18.5,0.723857625 18.2761424,0.5 18,0.5 C17.7238576,0.5 17.5,0.723857625 17.5,1 L17.5,12.55054 C15.7823911,12.796276 14.5051189,14.2649092 14.5,16 L14.5,20 C14.5,20.2761424 14.7238576,20.5 15,20.5 C15.2761424,20.5 15.5,20.2761424 15.5,20 L15.5,16 C15.5,14.6192882 16.6192882,13.5000001 18,13.5000001 C19.3807118,13.5000001 20.5,14.6192882 20.5,16 L20.5,20 C20.5,20.2761424 20.7238576,20.5 21,20.5 C21.2761424,20.5 21.5,20.2761424 21.5,20 L21.5,16 C21.4948811,14.2649092 20.2176089,12.796276 18.5,12.55054 L18.5,12.55054 Z" fill="#717275" fill-rule="nonzero" id="Shape"/><circle cx="18" cy="41" fill="#23B972" fill-rule="nonzero" id="Oval" r="18"/><rect fill="#B4B4B3" fill-rule="nonzero" height="5" id="Rectangle-path" rx="1" width="8" x="14" y="19"/><path d="M36,41 C36,41.13 36,41.26 35.99,41.39 C35.99,41.67 35.98,41.95 35.96,42.22 C35.94,42.48 35.92,42.74 35.89,43 C35.7447714,44.3653893 35.4358877,45.7083623 34.97,47 L1.03,47 C0.560722272,45.6812783 0.248567408,44.3118247 0.1,42.92 C0.08,42.69 0.06,42.46 0.04,42.22 C0.02004,41.92 0.01004,41.62 0.01,41.32 C1.06854614e-15,41.22 1.06854614e-15,41.11 1.06854614e-15,41 C-0.000459997436,39.3081799 0.238578131,37.6248128 0.71,36 L35.29,36 C35.7614219,37.6248128 36.00046,39.3081799 36,41 Z" fill="#C9CED1" id="Shape"/><path d="M35.99,41.39 C35.99,41.67 35.98,41.95 35.96,42.22 C35.94,42.48 35.92,42.74 35.89,43 L32,37.38 L25.41,46.79 C25.3079111,46.9105114 25.1579703,46.980002 25.00003,46.980002 C24.8420897,46.980002 24.6921489,46.9105114 24.59006,46.79 L18,37.37 L11.41,46.79 C11.3079111,46.9105114 11.1579703,46.980002 11.00003,46.980002 C10.8420897,46.980002 10.6921489,46.9105114 10.59006,46.79 L4,37.37 L0.1,42.92 C0.08,42.69 0.06,42.46 0.04,42.22 C0.02004,41.92 0.01004,41.62 0.01,41.32 L3.59,36.21 C3.68495135,36.0781698 3.83750478,36.000043 3.99997,36.000043 C4.16243522,36.000043 4.31498865,36.0781698 4.40994,36.21 L11,45.63 L17.59,36.21 C17.6920889,36.0894886 17.8420297,36.019998 17.99997,36.019998 C18.1579103,36.019998 18.3078511,36.0894886 18.40994,36.21 L25,45.63 L31.59,36.21 C31.6851122,36.0783358 31.8375755,36.0002448 32,36 C32.165554,35.9973396 32.3206842,36.0805802 32.41,36.22 L35.99,41.39 Z" fill="#F0F3F4" fill-rule="nonzero" id="Shape"/><rect fill="#B4B4B3" fill-rule="nonzero" height="5" id="Rectangle-path" rx="1" width="8" x="36" y="11"/></g></g></svg>