<svg id="Capa_1" enable-background="new 0 0 546.55 546.55" height="512" viewBox="0 0 546.55 546.55" width="512" xmlns="http://www.w3.org/2000/svg" fill="tomato"><path id="path-1_61_" d="m399.908 385.759c13.34 13.34 13.34 34.969 0 48.309s-34.969 13.34-48.309 0-13.34-34.969 0-48.309 34.969-13.34 48.309 0" transform="translate(9.902 10.902)"/><path d="m392.833 102.478h-65.25l11.398-68.319h70.931v-34.159h-273.274v34.159h82.319l-11.388 68.319h-53.852c-47.086 0-85.398 38.312-85.398 85.398v273.275c0 22.238 14.321 41.019 34.159 48.093v20.226c0 9.44 7.639 17.08 17.08 17.08h68.319c9.441 0 17.08-7.639 17.08-17.08v-17.08h136.637v17.08c0 9.44 7.639 17.08 17.08 17.08h68.319c9.441 0 17.08-7.639 17.08-17.08v-20.226c19.838-7.074 34.159-25.855 34.159-48.093v-273.274c-.001-47.086-38.313-85.399-85.399-85.399zm-139.25-68.319h50.766l-11.398 68.319h-50.755c-.001 0 11.387-68.319 11.387-68.319zm190.489 426.993c0 9.424-7.656 17.08-17.08 17.08h-307.434c-9.424 0-17.08-7.656-17.08-17.08v-119.558h341.594zm0-153.718h-341.594v-119.557c0-28.255 22.984-51.239 51.239-51.239h239.116c28.255 0 51.239 22.984 51.239 51.239z"/><path id="path-1_60_" d="m194.952 386.306c13.34 13.34 13.34 34.969 0 48.309s-34.969 13.34-48.309 0-13.34-34.969 0-48.309 34.969-13.34 48.309 0" transform="translate(3.902 10.918)"/></svg>